solid OpenSCAD_Model
  facet normal 0 0 -1
    outer loop
      vertex 11.5586 20 40.01
      vertex 30 20 40.01
      vertex 17.3292 10.005 40.01
    endloop
  endfacet
  facet normal 0 0 -1
    outer loop
      vertex 17.3292 10.005 40.01
      vertex 30 20 40.01
      vertex 100 20 40.01
    endloop
  endfacet
  facet normal 0 0 -1
    outer loop
      vertex 17.3292 10.005 40.01
      vertex 100 20 40.01
      vertex 100 0 40.01
    endloop
  endfacet
  facet normal 0 0 -1
    outer loop
      vertex 17.3292 10.005 40.01
      vertex 100 0 40.01
      vertex 11.094 0 40.01
    endloop
  endfacet
  facet normal 0 0 -1
    outer loop
      vertex 17.3292 10.005 40.01
      vertex 11.094 0 40.01
      vertex 8.32051 4.80385 40.01
    endloop
  endfacet
  facet normal -0.5 0.866025 0
    outer loop
      vertex 17.3292 10.005 110
      vertex 17.3292 10.005 40.01
      vertex 8.32051 4.80385 110
    endloop
  endfacet
  facet normal -0.5 0.866025 0
    outer loop
      vertex 8.32051 4.80385 110
      vertex 17.3292 10.005 40.01
      vertex 8.32051 4.80385 40.01
    endloop
  endfacet
  facet normal -0.866025 -0.5 0
    outer loop
      vertex 11.094 0 50
      vertex 10.8205 0.473721 50
      vertex 11.094 0 40.01
    endloop
  endfacet
  facet normal -0.866025 -0.5 0
    outer loop
      vertex 8.32051 4.80385 110
      vertex 10.8205 0.473721 50
      vertex 10.8205 0.473721 110
    endloop
  endfacet
  facet normal -0.866025 -0.5 0
    outer loop
      vertex 11.094 0 40.01
      vertex 10.8205 0.473721 50
      vertex 8.32051 4.80385 110
    endloop
  endfacet
  facet normal -0.866025 -0.5 0
    outer loop
      vertex 11.094 0 40.01
      vertex 8.32051 4.80385 110
      vertex 8.32051 4.80385 40.01
    endloop
  endfacet
  facet normal -0.866025 -0.5 0
    outer loop
      vertex 17.3292 10.005 110
      vertex 11.5586 20 110
      vertex 17.3292 10.005 40.01
    endloop
  endfacet
  facet normal -0.866025 -0.5 0
    outer loop
      vertex 17.3292 10.005 40.01
      vertex 11.5586 20 110
      vertex 11.5586 20 40.01
    endloop
  endfacet
  facet normal 0 -1 0
    outer loop
      vertex 11.094 0 50
      vertex 11.094 0 40.01
      vertex 100 0 40.01
    endloop
  endfacet
  facet normal 0 -1 0
    outer loop
      vertex 100 0 50
      vertex 11.094 0 50
      vertex 100 0 40.01
    endloop
  endfacet
  facet normal 1 0 0
    outer loop
      vertex 100 0 50
      vertex 100 0 40.01
      vertex 100 20 40.01
    endloop
  endfacet
  facet normal 1 0 0
    outer loop
      vertex 100 20 50
      vertex 100 0 50
      vertex 100 20 40.01
    endloop
  endfacet
  facet normal 0 1 0
    outer loop
      vertex 30 20 40.01
      vertex 30 20 50
      vertex 100 20 40.01
    endloop
  endfacet
  facet normal 0 1 0
    outer loop
      vertex 100 20 40.01
      vertex 30 20 50
      vertex 100 20 50
    endloop
  endfacet
  facet normal 0 1 0
    outer loop
      vertex 30 20 50
      vertex 30 20 40.01
      vertex 21.547 20 50
    endloop
  endfacet
  facet normal 0 1 0
    outer loop
      vertex 11.5586 20 40.01
      vertex 11.5586 20 110
      vertex 21.547 20 50
    endloop
  endfacet
  facet normal 0 1 0
    outer loop
      vertex 11.5586 20 40.01
      vertex 21.547 20 50
      vertex 30 20 40.01
    endloop
  endfacet
  facet normal 0 1 0
    outer loop
      vertex 21.547 20 50
      vertex 11.5586 20 110
      vertex 21.547 20 110
    endloop
  endfacet
  facet normal 0 0 1
    outer loop
      vertex 17.3292 10.005 110
      vertex 8.32051 4.80385 110
      vertex 10.8205 0.473721 110
    endloop
  endfacet
  facet normal 0 0 1
    outer loop
      vertex 21.547 20 110
      vertex 17.3292 10.005 110
      vertex 27.3205 10 110
    endloop
  endfacet
  facet normal 0 0 1
    outer loop
      vertex 27.3205 10 110
      vertex 17.3292 10.005 110
      vertex 10.8205 0.473721 110
    endloop
  endfacet
  facet normal 0 0 1
    outer loop
      vertex 11.5586 20 110
      vertex 17.3292 10.005 110
      vertex 21.547 20 110
    endloop
  endfacet
  facet normal 0.5 -0.866025 0
    outer loop
      vertex 10.8205 0.473721 110
      vertex 10.8205 0.473721 50
      vertex 27.3205 10 50
    endloop
  endfacet
  facet normal 0.5 -0.866025 0
    outer loop
      vertex 27.3205 10 110
      vertex 10.8205 0.473721 110
      vertex 27.3205 10 50
    endloop
  endfacet
  facet normal 0 0 1
    outer loop
      vertex 27.3205 10 50
      vertex 10.8205 0.473721 50
      vertex 11.094 0 50
    endloop
  endfacet
  facet normal 0 0 1
    outer loop
      vertex 100 20 50
      vertex 27.3205 10 50
      vertex 100 0 50
    endloop
  endfacet
  facet normal 0 0 1
    outer loop
      vertex 100 0 50
      vertex 27.3205 10 50
      vertex 11.094 0 50
    endloop
  endfacet
  facet normal 0 0 1
    outer loop
      vertex 30 20 50
      vertex 27.3205 10 50
      vertex 100 20 50
    endloop
  endfacet
  facet normal 0 0 1
    outer loop
      vertex 21.547 20 50
      vertex 27.3205 10 50
      vertex 30 20 50
    endloop
  endfacet
  facet normal 0.866025 0.5 0
    outer loop
      vertex 27.3205 10 50
      vertex 21.547 20 50
      vertex 21.547 20 110
    endloop
  endfacet
  facet normal 0.866025 0.5 0
    outer loop
      vertex 27.3205 10 110
      vertex 27.3205 10 50
      vertex 21.547 20 110
    endloop
  endfacet
endsolid OpenSCAD_Model
