solid OpenSCAD_Model
  facet normal -1 0 0
    outer loop
      vertex 0 0 0
      vertex 0 40 10
      vertex 0 40 0
    endloop
  endfacet
  facet normal -1 -0 0
    outer loop
      vertex 0 40 10
      vertex 0 0 0
      vertex 0 0 10
    endloop
  endfacet
  facet normal 0 0 1
    outer loop
      vertex 20 40 10
      vertex 18 38 10
      vertex 20 0 10
    endloop
  endfacet
  facet normal 0 0 1
    outer loop
      vertex 20 40 10
      vertex 2 38 10
      vertex 18 38 10
    endloop
  endfacet
  facet normal 0 0 1
    outer loop
      vertex 2 38 10
      vertex 0 40 10
      vertex 2 2 10
    endloop
  endfacet
  facet normal -0 0 1
    outer loop
      vertex 0 40 10
      vertex 2 38 10
      vertex 20 40 10
    endloop
  endfacet
  facet normal -0 0 1
    outer loop
      vertex 18 2 10
      vertex 20 0 10
      vertex 18 38 10
    endloop
  endfacet
  facet normal -0 0 1
    outer loop
      vertex 2 2 10
      vertex 20 0 10
      vertex 18 2 10
    endloop
  endfacet
  facet normal 0 0 1
    outer loop
      vertex 2 2 10
      vertex 0 0 10
      vertex 20 0 10
    endloop
  endfacet
  facet normal 0 0 1
    outer loop
      vertex 0 0 10
      vertex 2 2 10
      vertex 0 40 10
    endloop
  endfacet
  facet normal 1 -0 0
    outer loop
      vertex 20 0 10
      vertex 20 40 0
      vertex 20 40 10
    endloop
  endfacet
  facet normal 1 0 0
    outer loop
      vertex 20 40 0
      vertex 20 0 10
      vertex 20 0 0
    endloop
  endfacet
  facet normal 0 1 -0
    outer loop
      vertex 20 40 0
      vertex 0 40 10
      vertex 20 40 10
    endloop
  endfacet
  facet normal 0 1 0
    outer loop
      vertex 0 40 10
      vertex 20 40 0
      vertex 0 40 0
    endloop
  endfacet
  facet normal 0 0 -1
    outer loop
      vertex 12.5183 29.3534 0
      vertex 20 40 0
      vertex 12.5183 10.6466 0
    endloop
  endfacet
  facet normal 0 0 -1
    outer loop
      vertex 20 40 0
      vertex 12.5183 29.3534 0
      vertex 12.6 30 0
    endloop
  endfacet
  facet normal 0 0 -1
    outer loop
      vertex 12.2784 11.2526 0
      vertex 12.5183 29.3534 0
      vertex 12.5183 10.6466 0
    endloop
  endfacet
  facet normal 0 0 -1
    outer loop
      vertex 12.2784 11.2526 0
      vertex 12.2784 28.7474 0
      vertex 12.5183 29.3534 0
    endloop
  endfacet
  facet normal 0 0 -1
    outer loop
      vertex 11.8953 11.7798 0
      vertex 12.2784 28.7474 0
      vertex 12.2784 11.2526 0
    endloop
  endfacet
  facet normal 0 0 -1
    outer loop
      vertex 11.8953 11.7798 0
      vertex 11.8953 28.2202 0
      vertex 12.2784 28.7474 0
    endloop
  endfacet
  facet normal 0 0 -1
    outer loop
      vertex 11.3931 12.1953 0
      vertex 11.8953 28.2202 0
      vertex 11.8953 11.7798 0
    endloop
  endfacet
  facet normal 0 0 -1
    outer loop
      vertex 11.3931 12.1953 0
      vertex 11.3931 27.8047 0
      vertex 11.8953 28.2202 0
    endloop
  endfacet
  facet normal 0 0 -1
    outer loop
      vertex 10.8034 12.4727 0
      vertex 11.3931 27.8047 0
      vertex 11.3931 12.1953 0
    endloop
  endfacet
  facet normal 0 0 -1
    outer loop
      vertex 10.8034 12.4727 0
      vertex 10.8034 27.5273 0
      vertex 11.3931 27.8047 0
    endloop
  endfacet
  facet normal 0 0 -1
    outer loop
      vertex 10.1633 12.5949 0
      vertex 10.8034 27.5273 0
      vertex 10.8034 12.4727 0
    endloop
  endfacet
  facet normal 0 0 -1
    outer loop
      vertex 10.1633 12.5949 0
      vertex 10.1633 27.4051 0
      vertex 10.8034 27.5273 0
    endloop
  endfacet
  facet normal 0 0 -1
    outer loop
      vertex 9.51281 12.5539 0
      vertex 10.1633 27.4051 0
      vertex 10.1633 12.5949 0
    endloop
  endfacet
  facet normal 0 0 -1
    outer loop
      vertex 9.51281 12.5539 0
      vertex 9.51281 27.4461 0
      vertex 10.1633 27.4051 0
    endloop
  endfacet
  facet normal 0 0 -1
    outer loop
      vertex 8.89297 12.3525 0
      vertex 9.51281 27.4461 0
      vertex 9.51281 12.5539 0
    endloop
  endfacet
  facet normal 0 0 -1
    outer loop
      vertex 8.89297 12.3525 0
      vertex 8.89297 27.6474 0
      vertex 9.51281 27.4461 0
    endloop
  endfacet
  facet normal 0 0 -1
    outer loop
      vertex 8.3427 12.0033 0
      vertex 8.89297 27.6474 0
      vertex 8.89297 12.3525 0
    endloop
  endfacet
  facet normal 0 0 -1
    outer loop
      vertex 8.3427 12.0033 0
      vertex 8.3427 27.9967 0
      vertex 8.89297 27.6474 0
    endloop
  endfacet
  facet normal 0 0 -1
    outer loop
      vertex 7.89655 11.5282 0
      vertex 8.3427 27.9967 0
      vertex 8.3427 12.0033 0
    endloop
  endfacet
  facet normal 0 0 -1
    outer loop
      vertex 7.89655 11.5282 0
      vertex 7.89655 28.4718 0
      vertex 8.3427 27.9967 0
    endloop
  endfacet
  facet normal 0 0 -1
    outer loop
      vertex 7.58258 10.9571 0
      vertex 7.89655 28.4718 0
      vertex 7.89655 11.5282 0
    endloop
  endfacet
  facet normal 0 0 -1
    outer loop
      vertex 7.58258 10.9571 0
      vertex 7.58258 29.0429 0
      vertex 7.89655 28.4718 0
    endloop
  endfacet
  facet normal 0 0 -1
    outer loop
      vertex 0 0 0
      vertex 7.58258 10.9571 0
      vertex 7.4205 10.3259 0
    endloop
  endfacet
  facet normal -0 0 -1
    outer loop
      vertex 7.58258 10.9571 0
      vertex 0 0 0
      vertex 7.58258 29.0429 0
    endloop
  endfacet
  facet normal 0 0 -1
    outer loop
      vertex 12.5183 10.6466 0
      vertex 20 0 0
      vertex 12.6 10 0
    endloop
  endfacet
  facet normal 0 0 -1
    outer loop
      vertex 20 0 0
      vertex 12.5183 9.35341 0
      vertex 12.6 10 0
    endloop
  endfacet
  facet normal 0 0 -1
    outer loop
      vertex 20 0 0
      vertex 12.2784 8.74744 0
      vertex 12.5183 9.35341 0
    endloop
  endfacet
  facet normal 0 0 -1
    outer loop
      vertex 20 0 0
      vertex 11.8953 8.22018 0
      vertex 12.2784 8.74744 0
    endloop
  endfacet
  facet normal 0 0 -1
    outer loop
      vertex 20 0 0
      vertex 11.3931 7.80475 0
      vertex 11.8953 8.22018 0
    endloop
  endfacet
  facet normal 0 0 -1
    outer loop
      vertex 20 0 0
      vertex 10.8034 7.52725 0
      vertex 11.3931 7.80475 0
    endloop
  endfacet
  facet normal 0 0 -1
    outer loop
      vertex 20 0 0
      vertex 10.1633 7.40513 0
      vertex 10.8034 7.52725 0
    endloop
  endfacet
  facet normal 0 0 -1
    outer loop
      vertex 0 0 0
      vertex 10.1633 7.40513 0
      vertex 20 0 0
    endloop
  endfacet
  facet normal -0 0 -1
    outer loop
      vertex 10.1633 7.40513 0
      vertex 0 0 0
      vertex 9.51281 7.44605 0
    endloop
  endfacet
  facet normal -0 0 -1
    outer loop
      vertex 9.51281 7.44605 0
      vertex 0 0 0
      vertex 8.89297 7.64745 0
    endloop
  endfacet
  facet normal 0 0 -1
    outer loop
      vertex 0 0 0
      vertex 7.4205 10.3259 0
      vertex 7.4205 9.67413 0
    endloop
  endfacet
  facet normal 0 0 -1
    outer loop
      vertex 0 40 0
      vertex 7.58258 29.0429 0
      vertex 0 0 0
    endloop
  endfacet
  facet normal 0 0 -1
    outer loop
      vertex 7.58258 29.0429 0
      vertex 0 40 0
      vertex 7.4205 29.6741 0
    endloop
  endfacet
  facet normal -0 0 -1
    outer loop
      vertex 7.58258 9.04288 0
      vertex 0 0 0
      vertex 7.4205 9.67413 0
    endloop
  endfacet
  facet normal -0 0 -1
    outer loop
      vertex 7.89655 8.47176 0
      vertex 0 0 0
      vertex 7.58258 9.04288 0
    endloop
  endfacet
  facet normal -0 0 -1
    outer loop
      vertex 8.3427 7.99667 0
      vertex 0 0 0
      vertex 7.89655 8.47176 0
    endloop
  endfacet
  facet normal -0 0 -1
    outer loop
      vertex 8.89297 7.64745 0
      vertex 0 0 0
      vertex 8.3427 7.99667 0
    endloop
  endfacet
  facet normal 0 0 -1
    outer loop
      vertex 20 0 0
      vertex 12.5183 10.6466 0
      vertex 20 40 0
    endloop
  endfacet
  facet normal 0 0 -1
    outer loop
      vertex 12.5183 30.6466 0
      vertex 20 40 0
      vertex 12.6 30 0
    endloop
  endfacet
  facet normal 0 0 -1
    outer loop
      vertex 12.2784 31.2526 0
      vertex 20 40 0
      vertex 12.5183 30.6466 0
    endloop
  endfacet
  facet normal 0 0 -1
    outer loop
      vertex 11.8953 31.7798 0
      vertex 20 40 0
      vertex 12.2784 31.2526 0
    endloop
  endfacet
  facet normal 0 0 -1
    outer loop
      vertex 11.3931 32.1953 0
      vertex 20 40 0
      vertex 11.8953 31.7798 0
    endloop
  endfacet
  facet normal 0 0 -1
    outer loop
      vertex 10.8034 32.4727 0
      vertex 20 40 0
      vertex 11.3931 32.1953 0
    endloop
  endfacet
  facet normal 0 0 -1
    outer loop
      vertex 10.1633 32.5949 0
      vertex 20 40 0
      vertex 10.8034 32.4727 0
    endloop
  endfacet
  facet normal 0 0 -1
    outer loop
      vertex 0 40 0
      vertex 10.1633 32.5949 0
      vertex 9.51281 32.5539 0
    endloop
  endfacet
  facet normal 0 0 -1
    outer loop
      vertex 0 40 0
      vertex 9.51281 32.5539 0
      vertex 8.89297 32.3526 0
    endloop
  endfacet
  facet normal 0 0 -1
    outer loop
      vertex 0 40 0
      vertex 8.89297 32.3526 0
      vertex 8.3427 32.0033 0
    endloop
  endfacet
  facet normal 0 0 -1
    outer loop
      vertex 10.1633 32.5949 0
      vertex 0 40 0
      vertex 20 40 0
    endloop
  endfacet
  facet normal 0 0 -1
    outer loop
      vertex 7.89655 31.5282 0
      vertex 0 40 0
      vertex 8.3427 32.0033 0
    endloop
  endfacet
  facet normal 0 0 -1
    outer loop
      vertex 7.58258 30.9571 0
      vertex 0 40 0
      vertex 7.89655 31.5282 0
    endloop
  endfacet
  facet normal 0 0 -1
    outer loop
      vertex 7.4205 30.3259 0
      vertex 0 40 0
      vertex 7.58258 30.9571 0
    endloop
  endfacet
  facet normal 0 0 -1
    outer loop
      vertex 7.4205 29.6741 0
      vertex 0 40 0
      vertex 7.4205 30.3259 0
    endloop
  endfacet
  facet normal 0 -1 0
    outer loop
      vertex 0 0 0
      vertex 20 0 10
      vertex 0 0 10
    endloop
  endfacet
  facet normal 0 -1 -0
    outer loop
      vertex 20 0 10
      vertex 0 0 0
      vertex 20 0 0
    endloop
  endfacet
  facet normal 1 -0 0
    outer loop
      vertex 2 2 10
      vertex 2 38 7
      vertex 2 38 10
    endloop
  endfacet
  facet normal 1 0 0
    outer loop
      vertex 2 38 7
      vertex 2 2 10
      vertex 2 2 7
    endloop
  endfacet
  facet normal -1 0 0
    outer loop
      vertex 18 2 7
      vertex 18 38 10
      vertex 18 38 7
    endloop
  endfacet
  facet normal -1 -0 0
    outer loop
      vertex 18 38 10
      vertex 18 2 7
      vertex 18 2 10
    endloop
  endfacet
  facet normal -0 0 1
    outer loop
      vertex 15.8115 11.4921 7
      vertex 18 2 7
      vertex 15.8115 28.5079 7
    endloop
  endfacet
  facet normal 0 0 1
    outer loop
      vertex 18 2 7
      vertex 15.8115 11.4921 7
      vertex 16 10 7
    endloop
  endfacet
  facet normal -0 0 1
    outer loop
      vertex 15.2578 27.1095 7
      vertex 15.8115 11.4921 7
      vertex 15.8115 28.5079 7
    endloop
  endfacet
  facet normal 0 0 1
    outer loop
      vertex 15.2578 27.1095 7
      vertex 15.2578 12.8905 7
      vertex 15.8115 11.4921 7
    endloop
  endfacet
  facet normal -0 0 1
    outer loop
      vertex 14.3738 25.8927 7
      vertex 15.2578 12.8905 7
      vertex 15.2578 27.1095 7
    endloop
  endfacet
  facet normal 0 0 1
    outer loop
      vertex 14.3738 25.8927 7
      vertex 14.3738 14.1073 7
      vertex 15.2578 12.8905 7
    endloop
  endfacet
  facet normal -0 0 1
    outer loop
      vertex 13.215 24.934 7
      vertex 14.3738 14.1073 7
      vertex 14.3738 25.8927 7
    endloop
  endfacet
  facet normal 0 0 1
    outer loop
      vertex 13.215 24.934 7
      vertex 13.215 15.066 7
      vertex 14.3738 14.1073 7
    endloop
  endfacet
  facet normal -0 0 1
    outer loop
      vertex 11.8541 24.2937 7
      vertex 13.215 15.066 7
      vertex 13.215 24.934 7
    endloop
  endfacet
  facet normal 0 0 1
    outer loop
      vertex 11.8541 24.2937 7
      vertex 11.8541 15.7063 7
      vertex 13.215 15.066 7
    endloop
  endfacet
  facet normal -0 0 1
    outer loop
      vertex 10.3767 24.0118 7
      vertex 11.8541 15.7063 7
      vertex 11.8541 24.2937 7
    endloop
  endfacet
  facet normal 0 0 1
    outer loop
      vertex 10.3767 24.0118 7
      vertex 10.3767 15.9882 7
      vertex 11.8541 15.7063 7
    endloop
  endfacet
  facet normal 0 0 1
    outer loop
      vertex 8.87571 24.1063 7
      vertex 10.3767 15.9882 7
      vertex 10.3767 24.0118 7
    endloop
  endfacet
  facet normal 0 0 1
    outer loop
      vertex 8.87571 24.1063 7
      vertex 8.87571 15.8937 7
      vertex 10.3767 15.9882 7
    endloop
  endfacet
  facet normal 0 0 1
    outer loop
      vertex 7.44532 24.571 7
      vertex 8.87571 15.8937 7
      vertex 8.87571 24.1063 7
    endloop
  endfacet
  facet normal 0 0 1
    outer loop
      vertex 7.44532 24.571 7
      vertex 7.44532 15.429 7
      vertex 8.87571 15.8937 7
    endloop
  endfacet
  facet normal 0 0 1
    outer loop
      vertex 6.17546 25.3769 7
      vertex 7.44532 15.429 7
      vertex 7.44532 24.571 7
    endloop
  endfacet
  facet normal 0 0 1
    outer loop
      vertex 6.17546 25.3769 7
      vertex 6.17546 14.6231 7
      vertex 7.44532 15.429 7
    endloop
  endfacet
  facet normal 0 0 1
    outer loop
      vertex 5.1459 26.4733 7
      vertex 6.17546 14.6231 7
      vertex 6.17546 25.3769 7
    endloop
  endfacet
  facet normal 0 0 1
    outer loop
      vertex 5.1459 26.4733 7
      vertex 5.1459 13.5267 7
      vertex 6.17546 14.6231 7
    endloop
  endfacet
  facet normal 0 0 1
    outer loop
      vertex 4.42134 27.7913 7
      vertex 5.1459 13.5267 7
      vertex 5.1459 26.4733 7
    endloop
  endfacet
  facet normal 0 0 1
    outer loop
      vertex 4.42134 27.7913 7
      vertex 4.42134 12.2087 7
      vertex 5.1459 13.5267 7
    endloop
  endfacet
  facet normal 0 0 1
    outer loop
      vertex 4.04731 29.248 7
      vertex 4.42134 12.2087 7
      vertex 4.42134 27.7913 7
    endloop
  endfacet
  facet normal 0 0 1
    outer loop
      vertex 4.42134 12.2087 7
      vertex 4.04731 29.248 7
      vertex 4.04731 10.752 7
    endloop
  endfacet
  facet normal 0 0 1
    outer loop
      vertex 15.8115 28.5079 7
      vertex 18 38 7
      vertex 16 30 7
    endloop
  endfacet
  facet normal 0 0 1
    outer loop
      vertex 18 38 7
      vertex 15.8115 31.4921 7
      vertex 16 30 7
    endloop
  endfacet
  facet normal 0 0 1
    outer loop
      vertex 18 38 7
      vertex 15.2578 32.8905 7
      vertex 15.8115 31.4921 7
    endloop
  endfacet
  facet normal 0 0 1
    outer loop
      vertex 18 38 7
      vertex 14.3738 34.1073 7
      vertex 15.2578 32.8905 7
    endloop
  endfacet
  facet normal 0 0 1
    outer loop
      vertex 18 38 7
      vertex 13.215 35.066 7
      vertex 14.3738 34.1073 7
    endloop
  endfacet
  facet normal 0 0 1
    outer loop
      vertex 18 38 7
      vertex 11.8541 35.7063 7
      vertex 13.215 35.066 7
    endloop
  endfacet
  facet normal 0 0 1
    outer loop
      vertex 18 38 7
      vertex 10.3767 35.9882 7
      vertex 11.8541 35.7063 7
    endloop
  endfacet
  facet normal -0 0 1
    outer loop
      vertex 2 38 7
      vertex 10.3767 35.9882 7
      vertex 18 38 7
    endloop
  endfacet
  facet normal 0 0 1
    outer loop
      vertex 2 38 7
      vertex 4.04731 29.248 7
      vertex 4.04731 30.752 7
    endloop
  endfacet
  facet normal 0 0 1
    outer loop
      vertex 4.04731 29.248 7
      vertex 2 38 7
      vertex 4.04731 10.752 7
    endloop
  endfacet
  facet normal 0 0 1
    outer loop
      vertex 2 2 7
      vertex 4.04731 10.752 7
      vertex 2 38 7
    endloop
  endfacet
  facet normal 0 0 1
    outer loop
      vertex 4.42134 32.2087 7
      vertex 2 38 7
      vertex 4.04731 30.752 7
    endloop
  endfacet
  facet normal 0 0 1
    outer loop
      vertex 5.1459 33.5267 7
      vertex 2 38 7
      vertex 4.42134 32.2087 7
    endloop
  endfacet
  facet normal 0 0 1
    outer loop
      vertex 6.17546 34.6231 7
      vertex 2 38 7
      vertex 5.1459 33.5267 7
    endloop
  endfacet
  facet normal 0 0 1
    outer loop
      vertex 7.44532 35.429 7
      vertex 2 38 7
      vertex 6.17546 34.6231 7
    endloop
  endfacet
  facet normal 0 0 1
    outer loop
      vertex 8.87571 35.8937 7
      vertex 2 38 7
      vertex 7.44532 35.429 7
    endloop
  endfacet
  facet normal 0 0 1
    outer loop
      vertex 10.3767 35.9882 7
      vertex 2 38 7
      vertex 8.87571 35.8937 7
    endloop
  endfacet
  facet normal 0 0 1
    outer loop
      vertex 18 38 7
      vertex 15.8115 28.5079 7
      vertex 18 2 7
    endloop
  endfacet
  facet normal -0 0 1
    outer loop
      vertex 15.8115 8.50786 7
      vertex 18 2 7
      vertex 16 10 7
    endloop
  endfacet
  facet normal -0 0 1
    outer loop
      vertex 15.2578 7.10948 7
      vertex 18 2 7
      vertex 15.8115 8.50786 7
    endloop
  endfacet
  facet normal -0 0 1
    outer loop
      vertex 14.3738 5.89272 7
      vertex 18 2 7
      vertex 15.2578 7.10948 7
    endloop
  endfacet
  facet normal -0 0 1
    outer loop
      vertex 13.215 4.93403 7
      vertex 18 2 7
      vertex 14.3738 5.89272 7
    endloop
  endfacet
  facet normal -0 0 1
    outer loop
      vertex 11.8541 4.29366 7
      vertex 18 2 7
      vertex 13.215 4.93403 7
    endloop
  endfacet
  facet normal -0 0 1
    outer loop
      vertex 10.3767 4.01184 7
      vertex 18 2 7
      vertex 11.8541 4.29366 7
    endloop
  endfacet
  facet normal 0 0 1
    outer loop
      vertex 2 2 7
      vertex 10.3767 4.01184 7
      vertex 8.87571 4.10628 7
    endloop
  endfacet
  facet normal 0 0 1
    outer loop
      vertex 10.3767 4.01184 7
      vertex 2 2 7
      vertex 18 2 7
    endloop
  endfacet
  facet normal 0 0 1
    outer loop
      vertex 7.44532 4.57104 7
      vertex 2 2 7
      vertex 8.87571 4.10628 7
    endloop
  endfacet
  facet normal 0 0 1
    outer loop
      vertex 6.17546 5.37692 7
      vertex 2 2 7
      vertex 7.44532 4.57104 7
    endloop
  endfacet
  facet normal 0 0 1
    outer loop
      vertex 5.1459 6.47329 7
      vertex 2 2 7
      vertex 6.17546 5.37692 7
    endloop
  endfacet
  facet normal 0 0 1
    outer loop
      vertex 4.42134 7.79125 7
      vertex 2 2 7
      vertex 5.1459 6.47329 7
    endloop
  endfacet
  facet normal 0 0 1
    outer loop
      vertex 4.04731 9.248 7
      vertex 2 2 7
      vertex 4.42134 7.79125 7
    endloop
  endfacet
  facet normal 0 0 1
    outer loop
      vertex 4.04731 10.752 7
      vertex 2 2 7
      vertex 4.04731 9.248 7
    endloop
  endfacet
  facet normal 0 1 -0
    outer loop
      vertex 18 2 7
      vertex 2 2 10
      vertex 18 2 10
    endloop
  endfacet
  facet normal 0 1 0
    outer loop
      vertex 2 2 10
      vertex 18 2 7
      vertex 2 2 7
    endloop
  endfacet
  facet normal 0 -1 0
    outer loop
      vertex 2 38 7
      vertex 18 38 10
      vertex 2 38 10
    endloop
  endfacet
  facet normal 0 -1 -0
    outer loop
      vertex 18 38 10
      vertex 2 38 7
      vertex 18 38 7
    endloop
  endfacet
  facet normal -0.992115 -0.125334 0
    outer loop
      vertex 12.6 10 0
      vertex 12.5183 10.6466 5
      vertex 12.5183 10.6466 0
    endloop
  endfacet
  facet normal -0.992115 -0.125334 0
    outer loop
      vertex 12.5183 10.6466 5
      vertex 12.6 10 0
      vertex 12.6 10 5
    endloop
  endfacet
  facet normal 1 -0 0
    outer loop
      vertex 7.4205 9.67413 5
      vertex 7.4205 10.3259 0
      vertex 7.4205 10.3259 5
    endloop
  endfacet
  facet normal 1 0 0
    outer loop
      vertex 7.4205 10.3259 0
      vertex 7.4205 9.67413 5
      vertex 7.4205 9.67413 0
    endloop
  endfacet
  facet normal 0.0627898 -0.998027 0
    outer loop
      vertex 9.51281 12.5539 0
      vertex 10.1633 12.5949 5
      vertex 9.51281 12.5539 5
    endloop
  endfacet
  facet normal 0.0627898 -0.998027 0
    outer loop
      vertex 10.1633 12.5949 5
      vertex 9.51281 12.5539 0
      vertex 10.1633 12.5949 0
    endloop
  endfacet
  facet normal -0.18738 0.982287 0
    outer loop
      vertex 10.8034 7.52725 0
      vertex 10.1633 7.40513 5
      vertex 10.8034 7.52725 5
    endloop
  endfacet
  facet normal -0.18738 0.982287 0
    outer loop
      vertex 10.1633 7.40513 5
      vertex 10.8034 7.52725 0
      vertex 10.1633 7.40513 0
    endloop
  endfacet
  facet normal -0.637424 -0.770513 0
    outer loop
      vertex 11.3931 12.1953 0
      vertex 11.8953 11.7798 5
      vertex 11.3931 12.1953 5
    endloop
  endfacet
  facet normal -0.637424 -0.770513 -0
    outer loop
      vertex 11.8953 11.7798 5
      vertex 11.3931 12.1953 0
      vertex 11.8953 11.7798 0
    endloop
  endfacet
  facet normal -0.425779 -0.904827 0
    outer loop
      vertex 10.8034 12.4727 0
      vertex 11.3931 12.1953 5
      vertex 10.8034 12.4727 5
    endloop
  endfacet
  facet normal -0.425779 -0.904827 -0
    outer loop
      vertex 11.3931 12.1953 5
      vertex 10.8034 12.4727 0
      vertex 11.3931 12.1953 0
    endloop
  endfacet
  facet normal 0.728968 -0.684547 0
    outer loop
      vertex 7.89655 11.5282 5
      vertex 8.3427 12.0033 0
      vertex 8.3427 12.0033 5
    endloop
  endfacet
  facet normal 0.728968 -0.684547 0
    outer loop
      vertex 8.3427 12.0033 0
      vertex 7.89655 11.5282 5
      vertex 7.89655 11.5282 0
    endloop
  endfacet
  facet normal 0.876307 -0.481754 0
    outer loop
      vertex 7.58258 10.9571 5
      vertex 7.89655 11.5282 0
      vertex 7.89655 11.5282 5
    endloop
  endfacet
  facet normal 0.876307 -0.481754 0
    outer loop
      vertex 7.89655 11.5282 0
      vertex 7.58258 10.9571 5
      vertex 7.58258 10.9571 0
    endloop
  endfacet
  facet normal 0.535827 -0.844328 0
    outer loop
      vertex 8.3427 12.0033 0
      vertex 8.89297 12.3525 5
      vertex 8.3427 12.0033 5
    endloop
  endfacet
  facet normal 0.535827 -0.844328 0
    outer loop
      vertex 8.89297 12.3525 5
      vertex 8.3427 12.0033 0
      vertex 8.89297 12.3525 0
    endloop
  endfacet
  facet normal -0.929777 0.368124 0
    outer loop
      vertex 12.2784 8.74744 0
      vertex 12.5183 9.35341 5
      vertex 12.5183 9.35341 0
    endloop
  endfacet
  facet normal -0.929777 0.368124 0
    outer loop
      vertex 12.5183 9.35341 5
      vertex 12.2784 8.74744 0
      vertex 12.2784 8.74744 5
    endloop
  endfacet
  facet normal -0.809018 -0.587784 0
    outer loop
      vertex 12.2784 11.2526 0
      vertex 11.8953 11.7798 5
      vertex 11.8953 11.7798 0
    endloop
  endfacet
  facet normal -0.809018 -0.587784 0
    outer loop
      vertex 11.8953 11.7798 5
      vertex 12.2784 11.2526 0
      vertex 12.2784 11.2526 5
    endloop
  endfacet
  facet normal -0.929777 -0.368124 0
    outer loop
      vertex 12.5183 10.6466 0
      vertex 12.2784 11.2526 5
      vertex 12.2784 11.2526 0
    endloop
  endfacet
  facet normal -0.929777 -0.368124 0
    outer loop
      vertex 12.2784 11.2526 5
      vertex 12.5183 10.6466 0
      vertex 12.5183 10.6466 5
    endloop
  endfacet
  facet normal -0.18738 -0.982287 0
    outer loop
      vertex 10.1633 12.5949 0
      vertex 10.8034 12.4727 5
      vertex 10.1633 12.5949 5
    endloop
  endfacet
  facet normal -0.18738 -0.982287 -0
    outer loop
      vertex 10.8034 12.4727 5
      vertex 10.1633 12.5949 0
      vertex 10.8034 12.4727 0
    endloop
  endfacet
  facet normal 0.968583 -0.248689 0
    outer loop
      vertex 7.4205 10.3259 5
      vertex 7.58258 10.9571 0
      vertex 7.58258 10.9571 5
    endloop
  endfacet
  facet normal 0.968583 -0.248689 0
    outer loop
      vertex 7.58258 10.9571 0
      vertex 7.4205 10.3259 5
      vertex 7.4205 10.3259 0
    endloop
  endfacet
  facet normal 0.309018 -0.951056 0
    outer loop
      vertex 8.89297 12.3525 0
      vertex 9.51281 12.5539 5
      vertex 8.89297 12.3525 5
    endloop
  endfacet
  facet normal 0.309018 -0.951056 0
    outer loop
      vertex 9.51281 12.5539 5
      vertex 8.89297 12.3525 0
      vertex 9.51281 12.5539 0
    endloop
  endfacet
  facet normal -0.992115 0.125334 0
    outer loop
      vertex 12.5183 9.35341 0
      vertex 12.6 10 5
      vertex 12.6 10 0
    endloop
  endfacet
  facet normal -0.992115 0.125334 0
    outer loop
      vertex 12.6 10 5
      vertex 12.5183 9.35341 0
      vertex 12.5183 9.35341 5
    endloop
  endfacet
  facet normal -0.809018 0.587784 0
    outer loop
      vertex 11.8953 8.22018 0
      vertex 12.2784 8.74744 5
      vertex 12.2784 8.74744 0
    endloop
  endfacet
  facet normal -0.809018 0.587784 0
    outer loop
      vertex 12.2784 8.74744 5
      vertex 11.8953 8.22018 0
      vertex 11.8953 8.22018 5
    endloop
  endfacet
  facet normal 0.876307 0.481754 0
    outer loop
      vertex 7.89655 8.47176 5
      vertex 7.58258 9.04288 0
      vertex 7.58258 9.04288 5
    endloop
  endfacet
  facet normal 0.876307 0.481754 0
    outer loop
      vertex 7.58258 9.04288 0
      vertex 7.89655 8.47176 5
      vertex 7.89655 8.47176 0
    endloop
  endfacet
  facet normal 0.968583 0.248689 0
    outer loop
      vertex 7.58258 9.04288 5
      vertex 7.4205 9.67413 0
      vertex 7.4205 9.67413 5
    endloop
  endfacet
  facet normal 0.968583 0.248689 0
    outer loop
      vertex 7.4205 9.67413 0
      vertex 7.58258 9.04288 5
      vertex 7.58258 9.04288 0
    endloop
  endfacet
  facet normal 0.728968 0.684547 0
    outer loop
      vertex 8.3427 7.99667 5
      vertex 7.89655 8.47176 0
      vertex 7.89655 8.47176 5
    endloop
  endfacet
  facet normal 0.728968 0.684547 0
    outer loop
      vertex 7.89655 8.47176 0
      vertex 8.3427 7.99667 5
      vertex 8.3427 7.99667 0
    endloop
  endfacet
  facet normal 0.535827 0.844328 -0
    outer loop
      vertex 8.89297 7.64745 0
      vertex 8.3427 7.99667 5
      vertex 8.89297 7.64745 5
    endloop
  endfacet
  facet normal 0.535827 0.844328 0
    outer loop
      vertex 8.3427 7.99667 5
      vertex 8.89297 7.64745 0
      vertex 8.3427 7.99667 0
    endloop
  endfacet
  facet normal 0.0627898 0.998027 -0
    outer loop
      vertex 10.1633 7.40513 0
      vertex 9.51281 7.44605 5
      vertex 10.1633 7.40513 5
    endloop
  endfacet
  facet normal 0.0627898 0.998027 0
    outer loop
      vertex 9.51281 7.44605 5
      vertex 10.1633 7.40513 0
      vertex 9.51281 7.44605 0
    endloop
  endfacet
  facet normal 0.309018 0.951056 -0
    outer loop
      vertex 9.51281 7.44605 0
      vertex 8.89297 7.64745 5
      vertex 9.51281 7.44605 5
    endloop
  endfacet
  facet normal 0.309018 0.951056 0
    outer loop
      vertex 8.89297 7.64745 5
      vertex 9.51281 7.44605 0
      vertex 8.89297 7.64745 0
    endloop
  endfacet
  facet normal -0.637424 0.770513 0
    outer loop
      vertex 11.8953 8.22018 0
      vertex 11.3931 7.80475 5
      vertex 11.8953 8.22018 5
    endloop
  endfacet
  facet normal -0.637424 0.770513 0
    outer loop
      vertex 11.3931 7.80475 5
      vertex 11.8953 8.22018 0
      vertex 11.3931 7.80475 0
    endloop
  endfacet
  facet normal -0.425779 0.904827 0
    outer loop
      vertex 11.3931 7.80475 0
      vertex 10.8034 7.52725 5
      vertex 11.3931 7.80475 5
    endloop
  endfacet
  facet normal -0.425779 0.904827 0
    outer loop
      vertex 10.8034 7.52725 5
      vertex 11.3931 7.80475 0
      vertex 10.8034 7.52725 0
    endloop
  endfacet
  facet normal -0.809018 -0.587784 0
    outer loop
      vertex 12.2784 31.2526 0
      vertex 11.8953 31.7798 5
      vertex 11.8953 31.7798 0
    endloop
  endfacet
  facet normal -0.809018 -0.587784 0
    outer loop
      vertex 11.8953 31.7798 5
      vertex 12.2784 31.2526 0
      vertex 12.2784 31.2526 5
    endloop
  endfacet
  facet normal -0.992115 -0.125334 0
    outer loop
      vertex 12.6 30 0
      vertex 12.5183 30.6466 5
      vertex 12.5183 30.6466 0
    endloop
  endfacet
  facet normal -0.992115 -0.125334 0
    outer loop
      vertex 12.5183 30.6466 5
      vertex 12.6 30 0
      vertex 12.6 30 5
    endloop
  endfacet
  facet normal 0.968583 0.248689 0
    outer loop
      vertex 7.58258 29.0429 5
      vertex 7.4205 29.6741 0
      vertex 7.4205 29.6741 5
    endloop
  endfacet
  facet normal 0.968583 0.248689 0
    outer loop
      vertex 7.4205 29.6741 0
      vertex 7.58258 29.0429 5
      vertex 7.58258 29.0429 0
    endloop
  endfacet
  facet normal -0.637422 -0.770515 0
    outer loop
      vertex 11.3931 32.1953 0
      vertex 11.8953 31.7798 5
      vertex 11.3931 32.1953 5
    endloop
  endfacet
  facet normal -0.637422 -0.770515 -0
    outer loop
      vertex 11.8953 31.7798 5
      vertex 11.3931 32.1953 0
      vertex 11.8953 31.7798 0
    endloop
  endfacet
  facet normal 0.535828 -0.844327 0
    outer loop
      vertex 8.3427 32.0033 0
      vertex 8.89297 32.3526 5
      vertex 8.3427 32.0033 5
    endloop
  endfacet
  facet normal 0.535828 -0.844327 0
    outer loop
      vertex 8.89297 32.3526 5
      vertex 8.3427 32.0033 0
      vertex 8.89297 32.3526 0
    endloop
  endfacet
  facet normal 0.728969 -0.684547 0
    outer loop
      vertex 7.89655 31.5282 5
      vertex 8.3427 32.0033 0
      vertex 8.3427 32.0033 5
    endloop
  endfacet
  facet normal 0.728969 -0.684547 0
    outer loop
      vertex 8.3427 32.0033 0
      vertex 7.89655 31.5282 5
      vertex 7.89655 31.5282 0
    endloop
  endfacet
  facet normal -0.425779 0.904827 0
    outer loop
      vertex 11.3931 27.8047 0
      vertex 10.8034 27.5273 5
      vertex 11.3931 27.8047 5
    endloop
  endfacet
  facet normal -0.425779 0.904827 0
    outer loop
      vertex 10.8034 27.5273 5
      vertex 11.3931 27.8047 0
      vertex 10.8034 27.5273 0
    endloop
  endfacet
  facet normal 0.0627869 -0.998027 0
    outer loop
      vertex 9.51281 32.5539 0
      vertex 10.1633 32.5949 5
      vertex 9.51281 32.5539 5
    endloop
  endfacet
  facet normal 0.0627869 -0.998027 0
    outer loop
      vertex 10.1633 32.5949 5
      vertex 9.51281 32.5539 0
      vertex 10.1633 32.5949 0
    endloop
  endfacet
  facet normal -0.425782 -0.904826 0
    outer loop
      vertex 10.8034 32.4727 0
      vertex 11.3931 32.1953 5
      vertex 10.8034 32.4727 5
    endloop
  endfacet
  facet normal -0.425782 -0.904826 -0
    outer loop
      vertex 11.3931 32.1953 5
      vertex 10.8034 32.4727 0
      vertex 11.3931 32.1953 0
    endloop
  endfacet
  facet normal 1 -0 0
    outer loop
      vertex 7.4205 29.6741 5
      vertex 7.4205 30.3259 0
      vertex 7.4205 30.3259 5
    endloop
  endfacet
  facet normal 1 0 0
    outer loop
      vertex 7.4205 30.3259 0
      vertex 7.4205 29.6741 5
      vertex 7.4205 29.6741 0
    endloop
  endfacet
  facet normal 0.876307 -0.481754 0
    outer loop
      vertex 7.58258 30.9571 5
      vertex 7.89655 31.5282 0
      vertex 7.89655 31.5282 5
    endloop
  endfacet
  facet normal 0.876307 -0.481754 0
    outer loop
      vertex 7.89655 31.5282 0
      vertex 7.58258 30.9571 5
      vertex 7.58258 30.9571 0
    endloop
  endfacet
  facet normal 0.309018 -0.951056 0
    outer loop
      vertex 8.89297 32.3526 0
      vertex 9.51281 32.5539 5
      vertex 8.89297 32.3526 5
    endloop
  endfacet
  facet normal 0.309018 -0.951056 0
    outer loop
      vertex 9.51281 32.5539 5
      vertex 8.89297 32.3526 0
      vertex 9.51281 32.5539 0
    endloop
  endfacet
  facet normal 0.535828 0.844327 -0
    outer loop
      vertex 8.89297 27.6474 0
      vertex 8.3427 27.9967 5
      vertex 8.89297 27.6474 5
    endloop
  endfacet
  facet normal 0.535828 0.844327 0
    outer loop
      vertex 8.3427 27.9967 5
      vertex 8.89297 27.6474 0
      vertex 8.3427 27.9967 0
    endloop
  endfacet
  facet normal 0.876307 0.481754 0
    outer loop
      vertex 7.89655 28.4718 5
      vertex 7.58258 29.0429 0
      vertex 7.58258 29.0429 5
    endloop
  endfacet
  facet normal 0.876307 0.481754 0
    outer loop
      vertex 7.58258 29.0429 0
      vertex 7.89655 28.4718 5
      vertex 7.89655 28.4718 0
    endloop
  endfacet
  facet normal -0.809018 0.587784 0
    outer loop
      vertex 11.8953 28.2202 0
      vertex 12.2784 28.7474 5
      vertex 12.2784 28.7474 0
    endloop
  endfacet
  facet normal -0.809018 0.587784 0
    outer loop
      vertex 12.2784 28.7474 5
      vertex 11.8953 28.2202 0
      vertex 11.8953 28.2202 5
    endloop
  endfacet
  facet normal -0.929777 -0.368124 0
    outer loop
      vertex 12.5183 30.6466 0
      vertex 12.2784 31.2526 5
      vertex 12.2784 31.2526 0
    endloop
  endfacet
  facet normal -0.929777 -0.368124 0
    outer loop
      vertex 12.2784 31.2526 5
      vertex 12.5183 30.6466 0
      vertex 12.5183 30.6466 5
    endloop
  endfacet
  facet normal -0.187377 -0.982288 0
    outer loop
      vertex 10.1633 32.5949 0
      vertex 10.8034 32.4727 5
      vertex 10.1633 32.5949 5
    endloop
  endfacet
  facet normal -0.187377 -0.982288 -0
    outer loop
      vertex 10.8034 32.4727 5
      vertex 10.1633 32.5949 0
      vertex 10.8034 32.4727 0
    endloop
  endfacet
  facet normal 0.968583 -0.24869 0
    outer loop
      vertex 7.4205 30.3259 5
      vertex 7.58258 30.9571 0
      vertex 7.58258 30.9571 5
    endloop
  endfacet
  facet normal 0.968583 -0.24869 0
    outer loop
      vertex 7.58258 30.9571 0
      vertex 7.4205 30.3259 5
      vertex 7.4205 30.3259 0
    endloop
  endfacet
  facet normal -0.992115 0.125333 0
    outer loop
      vertex 12.5183 29.3534 0
      vertex 12.6 30 5
      vertex 12.6 30 0
    endloop
  endfacet
  facet normal -0.992115 0.125333 0
    outer loop
      vertex 12.6 30 5
      vertex 12.5183 29.3534 0
      vertex 12.5183 29.3534 5
    endloop
  endfacet
  facet normal 0.728968 0.684548 0
    outer loop
      vertex 8.3427 27.9967 5
      vertex 7.89655 28.4718 0
      vertex 7.89655 28.4718 5
    endloop
  endfacet
  facet normal 0.728968 0.684548 0
    outer loop
      vertex 7.89655 28.4718 0
      vertex 8.3427 27.9967 5
      vertex 8.3427 27.9967 0
    endloop
  endfacet
  facet normal -0.637424 0.770513 0
    outer loop
      vertex 11.8953 28.2202 0
      vertex 11.3931 27.8047 5
      vertex 11.8953 28.2202 5
    endloop
  endfacet
  facet normal -0.637424 0.770513 0
    outer loop
      vertex 11.3931 27.8047 5
      vertex 11.8953 28.2202 0
      vertex 11.3931 27.8047 0
    endloop
  endfacet
  facet normal -0.929776 0.368125 0
    outer loop
      vertex 12.2784 28.7474 0
      vertex 12.5183 29.3534 5
      vertex 12.5183 29.3534 0
    endloop
  endfacet
  facet normal -0.929776 0.368125 0
    outer loop
      vertex 12.5183 29.3534 5
      vertex 12.2784 28.7474 0
      vertex 12.2784 28.7474 5
    endloop
  endfacet
  facet normal -0.18738 0.982287 0
    outer loop
      vertex 10.8034 27.5273 0
      vertex 10.1633 27.4051 5
      vertex 10.8034 27.5273 5
    endloop
  endfacet
  facet normal -0.18738 0.982287 0
    outer loop
      vertex 10.1633 27.4051 5
      vertex 10.8034 27.5273 0
      vertex 10.1633 27.4051 0
    endloop
  endfacet
  facet normal 0.0627898 0.998027 -0
    outer loop
      vertex 10.1633 27.4051 0
      vertex 9.51281 27.4461 5
      vertex 10.1633 27.4051 5
    endloop
  endfacet
  facet normal 0.0627898 0.998027 0
    outer loop
      vertex 9.51281 27.4461 5
      vertex 10.1633 27.4051 0
      vertex 9.51281 27.4461 0
    endloop
  endfacet
  facet normal 0.309018 0.951056 -0
    outer loop
      vertex 9.51281 27.4461 0
      vertex 8.89297 27.6474 5
      vertex 9.51281 27.4461 5
    endloop
  endfacet
  facet normal 0.309018 0.951056 0
    outer loop
      vertex 8.89297 27.6474 5
      vertex 9.51281 27.4461 0
      vertex 8.89297 27.6474 0
    endloop
  endfacet
  facet normal -0.992115 -0.125334 0
    outer loop
      vertex 16 30 5
      vertex 15.8115 31.4921 7
      vertex 15.8115 31.4921 5
    endloop
  endfacet
  facet normal -0.992115 -0.125334 0
    outer loop
      vertex 15.8115 31.4921 7
      vertex 16 30 5
      vertex 16 30 7
    endloop
  endfacet
  facet normal 1 -0 0
    outer loop
      vertex 4.04731 29.248 7
      vertex 4.04731 30.752 5
      vertex 4.04731 30.752 7
    endloop
  endfacet
  facet normal 1 0 0
    outer loop
      vertex 4.04731 30.752 5
      vertex 4.04731 29.248 7
      vertex 4.04731 29.248 5
    endloop
  endfacet
  facet normal 0.0627904 -0.998027 0
    outer loop
      vertex 8.87571 35.8937 5
      vertex 10.3767 35.9882 7
      vertex 8.87571 35.8937 7
    endloop
  endfacet
  facet normal 0.0627904 -0.998027 0
    outer loop
      vertex 10.3767 35.9882 7
      vertex 8.87571 35.8937 5
      vertex 10.3767 35.9882 5
    endloop
  endfacet
  facet normal -0.187381 0.982287 0
    outer loop
      vertex 11.8541 24.2937 5
      vertex 10.3767 24.0118 7
      vertex 11.8541 24.2937 7
    endloop
  endfacet
  facet normal -0.187381 0.982287 0
    outer loop
      vertex 10.3767 24.0118 7
      vertex 11.8541 24.2937 5
      vertex 10.3767 24.0118 5
    endloop
  endfacet
  facet normal -0.637425 -0.770513 0
    outer loop
      vertex 13.215 35.066 5
      vertex 14.3738 34.1073 7
      vertex 13.215 35.066 7
    endloop
  endfacet
  facet normal -0.637425 -0.770513 -0
    outer loop
      vertex 14.3738 34.1073 7
      vertex 13.215 35.066 5
      vertex 14.3738 34.1073 5
    endloop
  endfacet
  facet normal -0.425778 -0.904828 0
    outer loop
      vertex 11.8541 35.7063 5
      vertex 13.215 35.066 7
      vertex 11.8541 35.7063 7
    endloop
  endfacet
  facet normal -0.425778 -0.904828 -0
    outer loop
      vertex 13.215 35.066 7
      vertex 11.8541 35.7063 5
      vertex 13.215 35.066 5
    endloop
  endfacet
  facet normal 0.728968 -0.684548 0
    outer loop
      vertex 5.1459 33.5267 7
      vertex 6.17546 34.6231 5
      vertex 6.17546 34.6231 7
    endloop
  endfacet
  facet normal 0.728968 -0.684548 0
    outer loop
      vertex 6.17546 34.6231 5
      vertex 5.1459 33.5267 7
      vertex 5.1459 33.5267 5
    endloop
  endfacet
  facet normal 0.876306 -0.481754 0
    outer loop
      vertex 4.42134 32.2087 7
      vertex 5.1459 33.5267 5
      vertex 5.1459 33.5267 7
    endloop
  endfacet
  facet normal 0.876306 -0.481754 0
    outer loop
      vertex 5.1459 33.5267 5
      vertex 4.42134 32.2087 7
      vertex 4.42134 32.2087 5
    endloop
  endfacet
  facet normal 0.535828 -0.844327 0
    outer loop
      vertex 6.17546 34.6231 5
      vertex 7.44532 35.429 7
      vertex 6.17546 34.6231 7
    endloop
  endfacet
  facet normal 0.535828 -0.844327 0
    outer loop
      vertex 7.44532 35.429 7
      vertex 6.17546 34.6231 5
      vertex 7.44532 35.429 5
    endloop
  endfacet
  facet normal -0.929776 0.368125 0
    outer loop
      vertex 15.2578 27.1095 5
      vertex 15.8115 28.5079 7
      vertex 15.8115 28.5079 5
    endloop
  endfacet
  facet normal -0.929776 0.368125 0
    outer loop
      vertex 15.8115 28.5079 7
      vertex 15.2578 27.1095 5
      vertex 15.2578 27.1095 7
    endloop
  endfacet
  facet normal -0.809017 -0.587785 0
    outer loop
      vertex 15.2578 32.8905 5
      vertex 14.3738 34.1073 7
      vertex 14.3738 34.1073 5
    endloop
  endfacet
  facet normal -0.809017 -0.587785 0
    outer loop
      vertex 14.3738 34.1073 7
      vertex 15.2578 32.8905 5
      vertex 15.2578 32.8905 7
    endloop
  endfacet
  facet normal -0.929776 -0.368125 0
    outer loop
      vertex 15.8115 31.4921 5
      vertex 15.2578 32.8905 7
      vertex 15.2578 32.8905 5
    endloop
  endfacet
  facet normal -0.929776 -0.368125 0
    outer loop
      vertex 15.2578 32.8905 7
      vertex 15.8115 31.4921 5
      vertex 15.8115 31.4921 7
    endloop
  endfacet
  facet normal -0.187382 -0.982287 0
    outer loop
      vertex 10.3767 35.9882 5
      vertex 11.8541 35.7063 7
      vertex 10.3767 35.9882 7
    endloop
  endfacet
  facet normal -0.187382 -0.982287 -0
    outer loop
      vertex 11.8541 35.7063 7
      vertex 10.3767 35.9882 5
      vertex 11.8541 35.7063 5
    endloop
  endfacet
  facet normal 0.968583 -0.24869 0
    outer loop
      vertex 4.04731 30.752 7
      vertex 4.42134 32.2087 5
      vertex 4.42134 32.2087 7
    endloop
  endfacet
  facet normal 0.968583 -0.24869 0
    outer loop
      vertex 4.42134 32.2087 5
      vertex 4.04731 30.752 7
      vertex 4.04731 30.752 5
    endloop
  endfacet
  facet normal 0.309016 -0.951057 0
    outer loop
      vertex 7.44532 35.429 5
      vertex 8.87571 35.8937 7
      vertex 7.44532 35.429 7
    endloop
  endfacet
  facet normal 0.309016 -0.951057 0
    outer loop
      vertex 8.87571 35.8937 7
      vertex 7.44532 35.429 5
      vertex 8.87571 35.8937 5
    endloop
  endfacet
  facet normal -0.992115 0.125333 0
    outer loop
      vertex 15.8115 28.5079 5
      vertex 16 30 7
      vertex 16 30 5
    endloop
  endfacet
  facet normal -0.992115 0.125333 0
    outer loop
      vertex 16 30 7
      vertex 15.8115 28.5079 5
      vertex 15.8115 28.5079 7
    endloop
  endfacet
  facet normal 0 0 1
    outer loop
      vertex 12.6 30 5
      vertex 16 30 5
      vertex 15.8115 31.4921 5
    endloop
  endfacet
  facet normal 0 0 1
    outer loop
      vertex 12.5183 30.6466 5
      vertex 15.8115 31.4921 5
      vertex 15.2578 32.8905 5
    endloop
  endfacet
  facet normal 0 0 1
    outer loop
      vertex 16 30 5
      vertex 12.6 30 5
      vertex 15.8115 28.5079 5
    endloop
  endfacet
  facet normal 0 0 1
    outer loop
      vertex 12.2784 31.2526 5
      vertex 15.2578 32.8905 5
      vertex 14.3738 34.1073 5
    endloop
  endfacet
  facet normal -0 0 1
    outer loop
      vertex 12.5183 29.3534 5
      vertex 15.8115 28.5079 5
      vertex 12.6 30 5
    endloop
  endfacet
  facet normal 0 0 1
    outer loop
      vertex 11.8953 31.7798 5
      vertex 14.3738 34.1073 5
      vertex 13.215 35.066 5
    endloop
  endfacet
  facet normal 0 0 1
    outer loop
      vertex 15.8115 28.5079 5
      vertex 12.5183 29.3534 5
      vertex 15.2578 27.1095 5
    endloop
  endfacet
  facet normal -0 0 1
    outer loop
      vertex 12.2784 28.7474 5
      vertex 15.2578 27.1095 5
      vertex 12.5183 29.3534 5
    endloop
  endfacet
  facet normal 0 0 1
    outer loop
      vertex 15.8115 31.4921 5
      vertex 12.5183 30.6466 5
      vertex 12.6 30 5
    endloop
  endfacet
  facet normal 0 0 1
    outer loop
      vertex 15.2578 32.8905 5
      vertex 12.2784 31.2526 5
      vertex 12.5183 30.6466 5
    endloop
  endfacet
  facet normal 0 0 1
    outer loop
      vertex 14.3738 34.1073 5
      vertex 11.8953 31.7798 5
      vertex 12.2784 31.2526 5
    endloop
  endfacet
  facet normal 0 0 1
    outer loop
      vertex 11.3931 32.1953 5
      vertex 13.215 35.066 5
      vertex 11.8541 35.7063 5
    endloop
  endfacet
  facet normal 0 0 1
    outer loop
      vertex 13.215 35.066 5
      vertex 11.3931 32.1953 5
      vertex 11.8953 31.7798 5
    endloop
  endfacet
  facet normal 0 0 1
    outer loop
      vertex 11.8541 35.7063 5
      vertex 10.8034 32.4727 5
      vertex 11.3931 32.1953 5
    endloop
  endfacet
  facet normal 0 0 1
    outer loop
      vertex 10.3767 35.9882 5
      vertex 10.8034 32.4727 5
      vertex 11.8541 35.7063 5
    endloop
  endfacet
  facet normal 0 0 1
    outer loop
      vertex 10.3767 35.9882 5
      vertex 10.1633 32.5949 5
      vertex 10.8034 32.4727 5
    endloop
  endfacet
  facet normal 0 0 1
    outer loop
      vertex 10.3767 35.9882 5
      vertex 9.51281 32.5539 5
      vertex 10.1633 32.5949 5
    endloop
  endfacet
  facet normal -0 0 1
    outer loop
      vertex 8.87571 35.8937 5
      vertex 9.51281 32.5539 5
      vertex 10.3767 35.9882 5
    endloop
  endfacet
  facet normal 0 0 1
    outer loop
      vertex 9.51281 32.5539 5
      vertex 8.87571 35.8937 5
      vertex 8.89297 32.3526 5
    endloop
  endfacet
  facet normal -0 0 1
    outer loop
      vertex 7.44532 35.429 5
      vertex 8.89297 32.3526 5
      vertex 8.87571 35.8937 5
    endloop
  endfacet
  facet normal 0 0 1
    outer loop
      vertex 8.89297 32.3526 5
      vertex 7.44532 35.429 5
      vertex 8.3427 32.0033 5
    endloop
  endfacet
  facet normal -0 0 1
    outer loop
      vertex 6.17546 34.6231 5
      vertex 8.3427 32.0033 5
      vertex 7.44532 35.429 5
    endloop
  endfacet
  facet normal 0 0 1
    outer loop
      vertex 8.3427 32.0033 5
      vertex 6.17546 34.6231 5
      vertex 7.89655 31.5282 5
    endloop
  endfacet
  facet normal -0 0 1
    outer loop
      vertex 5.1459 33.5267 5
      vertex 7.89655 31.5282 5
      vertex 6.17546 34.6231 5
    endloop
  endfacet
  facet normal -0 0 1
    outer loop
      vertex 4.42134 32.2087 5
      vertex 7.58258 30.9571 5
      vertex 5.1459 33.5267 5
    endloop
  endfacet
  facet normal 0 0 1
    outer loop
      vertex 7.89655 31.5282 5
      vertex 5.1459 33.5267 5
      vertex 7.58258 30.9571 5
    endloop
  endfacet
  facet normal 0 0 1
    outer loop
      vertex 15.2578 27.1095 5
      vertex 12.2784 28.7474 5
      vertex 14.3738 25.8927 5
    endloop
  endfacet
  facet normal -0 0 1
    outer loop
      vertex 11.8953 28.2202 5
      vertex 14.3738 25.8927 5
      vertex 12.2784 28.7474 5
    endloop
  endfacet
  facet normal 0 0 1
    outer loop
      vertex 14.3738 25.8927 5
      vertex 11.8953 28.2202 5
      vertex 13.215 24.934 5
    endloop
  endfacet
  facet normal -0 0 1
    outer loop
      vertex 11.3931 27.8047 5
      vertex 13.215 24.934 5
      vertex 11.8953 28.2202 5
    endloop
  endfacet
  facet normal 0 0 1
    outer loop
      vertex 13.215 24.934 5
      vertex 11.3931 27.8047 5
      vertex 11.8541 24.2937 5
    endloop
  endfacet
  facet normal -0 0 1
    outer loop
      vertex 10.8034 27.5273 5
      vertex 11.8541 24.2937 5
      vertex 11.3931 27.8047 5
    endloop
  endfacet
  facet normal 0 0 1
    outer loop
      vertex 10.8034 27.5273 5
      vertex 10.3767 24.0118 5
      vertex 11.8541 24.2937 5
    endloop
  endfacet
  facet normal -0 0 1
    outer loop
      vertex 10.1633 27.4051 5
      vertex 10.3767 24.0118 5
      vertex 10.8034 27.5273 5
    endloop
  endfacet
  facet normal 0 0 1
    outer loop
      vertex 9.51281 27.4461 5
      vertex 10.3767 24.0118 5
      vertex 10.1633 27.4051 5
    endloop
  endfacet
  facet normal 0 0 1
    outer loop
      vertex 8.87571 24.1063 5
      vertex 9.51281 27.4461 5
      vertex 8.89297 27.6474 5
    endloop
  endfacet
  facet normal 0 0 1
    outer loop
      vertex 9.51281 27.4461 5
      vertex 8.87571 24.1063 5
      vertex 10.3767 24.0118 5
    endloop
  endfacet
  facet normal 0 0 1
    outer loop
      vertex 7.44532 24.571 5
      vertex 8.89297 27.6474 5
      vertex 8.3427 27.9967 5
    endloop
  endfacet
  facet normal 0 0 1
    outer loop
      vertex 6.17546 25.3769 5
      vertex 8.3427 27.9967 5
      vertex 7.89655 28.4718 5
    endloop
  endfacet
  facet normal 0 0 1
    outer loop
      vertex 5.1459 26.4733 5
      vertex 7.89655 28.4718 5
      vertex 7.58258 29.0429 5
    endloop
  endfacet
  facet normal 0 0 1
    outer loop
      vertex 8.89297 27.6474 5
      vertex 7.44532 24.571 5
      vertex 8.87571 24.1063 5
    endloop
  endfacet
  facet normal 0 0 1
    outer loop
      vertex 4.42134 27.7913 5
      vertex 7.58258 29.0429 5
      vertex 7.4205 29.6741 5
    endloop
  endfacet
  facet normal 0 0 1
    outer loop
      vertex 7.58258 30.9571 5
      vertex 4.42134 32.2087 5
      vertex 7.4205 30.3259 5
    endloop
  endfacet
  facet normal 0 0 1
    outer loop
      vertex 8.3427 27.9967 5
      vertex 6.17546 25.3769 5
      vertex 7.44532 24.571 5
    endloop
  endfacet
  facet normal -0 0 1
    outer loop
      vertex 4.04731 30.752 5
      vertex 7.4205 30.3259 5
      vertex 4.42134 32.2087 5
    endloop
  endfacet
  facet normal 0 0 1
    outer loop
      vertex 7.89655 28.4718 5
      vertex 5.1459 26.4733 5
      vertex 6.17546 25.3769 5
    endloop
  endfacet
  facet normal 0 0 1
    outer loop
      vertex 7.4205 30.3259 5
      vertex 4.04731 30.752 5
      vertex 7.4205 29.6741 5
    endloop
  endfacet
  facet normal 0 0 1
    outer loop
      vertex 7.58258 29.0429 5
      vertex 4.42134 27.7913 5
      vertex 5.1459 26.4733 5
    endloop
  endfacet
  facet normal 0 0 1
    outer loop
      vertex 4.04731 29.248 5
      vertex 7.4205 29.6741 5
      vertex 4.04731 30.752 5
    endloop
  endfacet
  facet normal 0 0 1
    outer loop
      vertex 7.4205 29.6741 5
      vertex 4.04731 29.248 5
      vertex 4.42134 27.7913 5
    endloop
  endfacet
  facet normal -0.809017 0.587785 0
    outer loop
      vertex 14.3738 25.8927 5
      vertex 15.2578 27.1095 7
      vertex 15.2578 27.1095 5
    endloop
  endfacet
  facet normal -0.809017 0.587785 0
    outer loop
      vertex 15.2578 27.1095 7
      vertex 14.3738 25.8927 5
      vertex 14.3738 25.8927 7
    endloop
  endfacet
  facet normal 0.535826 0.844328 -0
    outer loop
      vertex 7.44532 24.571 5
      vertex 6.17546 25.3769 7
      vertex 7.44532 24.571 7
    endloop
  endfacet
  facet normal 0.535826 0.844328 0
    outer loop
      vertex 6.17546 25.3769 7
      vertex 7.44532 24.571 5
      vertex 6.17546 25.3769 5
    endloop
  endfacet
  facet normal 0.728969 0.684547 0
    outer loop
      vertex 6.17546 25.3769 7
      vertex 5.1459 26.4733 5
      vertex 5.1459 26.4733 7
    endloop
  endfacet
  facet normal 0.728969 0.684547 0
    outer loop
      vertex 5.1459 26.4733 5
      vertex 6.17546 25.3769 7
      vertex 6.17546 25.3769 5
    endloop
  endfacet
  facet normal 0.0627904 0.998027 -0
    outer loop
      vertex 10.3767 24.0118 5
      vertex 8.87571 24.1063 7
      vertex 10.3767 24.0118 7
    endloop
  endfacet
  facet normal 0.0627904 0.998027 0
    outer loop
      vertex 8.87571 24.1063 7
      vertex 10.3767 24.0118 5
      vertex 8.87571 24.1063 5
    endloop
  endfacet
  facet normal 0.876307 0.481754 0
    outer loop
      vertex 5.1459 26.4733 7
      vertex 4.42134 27.7913 5
      vertex 4.42134 27.7913 7
    endloop
  endfacet
  facet normal 0.876307 0.481754 0
    outer loop
      vertex 4.42134 27.7913 5
      vertex 5.1459 26.4733 7
      vertex 5.1459 26.4733 5
    endloop
  endfacet
  facet normal 0.968583 0.24869 0
    outer loop
      vertex 4.42134 27.7913 7
      vertex 4.04731 29.248 5
      vertex 4.04731 29.248 7
    endloop
  endfacet
  facet normal 0.968583 0.24869 0
    outer loop
      vertex 4.04731 29.248 5
      vertex 4.42134 27.7913 7
      vertex 4.42134 27.7913 5
    endloop
  endfacet
  facet normal -0.637424 0.770513 0
    outer loop
      vertex 14.3738 25.8927 5
      vertex 13.215 24.934 7
      vertex 14.3738 25.8927 7
    endloop
  endfacet
  facet normal -0.637424 0.770513 0
    outer loop
      vertex 13.215 24.934 7
      vertex 14.3738 25.8927 5
      vertex 13.215 24.934 5
    endloop
  endfacet
  facet normal -0.42578 0.904827 0
    outer loop
      vertex 13.215 24.934 5
      vertex 11.8541 24.2937 7
      vertex 13.215 24.934 7
    endloop
  endfacet
  facet normal -0.42578 0.904827 0
    outer loop
      vertex 11.8541 24.2937 7
      vertex 13.215 24.934 5
      vertex 11.8541 24.2937 5
    endloop
  endfacet
  facet normal 0.309017 0.951056 -0
    outer loop
      vertex 8.87571 24.1063 5
      vertex 7.44532 24.571 7
      vertex 8.87571 24.1063 7
    endloop
  endfacet
  facet normal 0.309017 0.951056 0
    outer loop
      vertex 7.44532 24.571 7
      vertex 8.87571 24.1063 5
      vertex 7.44532 24.571 5
    endloop
  endfacet
  facet normal -0.992115 -0.125333 0
    outer loop
      vertex 16 10 5
      vertex 15.8115 11.4921 7
      vertex 15.8115 11.4921 5
    endloop
  endfacet
  facet normal -0.992115 -0.125333 0
    outer loop
      vertex 15.8115 11.4921 7
      vertex 16 10 5
      vertex 16 10 7
    endloop
  endfacet
  facet normal 1 -0 0
    outer loop
      vertex 4.04731 9.248 7
      vertex 4.04731 10.752 5
      vertex 4.04731 10.752 7
    endloop
  endfacet
  facet normal 1 0 0
    outer loop
      vertex 4.04731 10.752 5
      vertex 4.04731 9.248 7
      vertex 4.04731 9.248 5
    endloop
  endfacet
  facet normal 0.0627904 -0.998027 0
    outer loop
      vertex 8.87571 15.8937 5
      vertex 10.3767 15.9882 7
      vertex 8.87571 15.8937 7
    endloop
  endfacet
  facet normal 0.0627904 -0.998027 0
    outer loop
      vertex 10.3767 15.9882 7
      vertex 8.87571 15.8937 5
      vertex 10.3767 15.9882 5
    endloop
  endfacet
  facet normal -0.187381 0.982287 0
    outer loop
      vertex 11.8541 4.29366 5
      vertex 10.3767 4.01184 7
      vertex 11.8541 4.29366 7
    endloop
  endfacet
  facet normal -0.187381 0.982287 0
    outer loop
      vertex 10.3767 4.01184 7
      vertex 11.8541 4.29366 5
      vertex 10.3767 4.01184 5
    endloop
  endfacet
  facet normal -0.637424 -0.770513 0
    outer loop
      vertex 13.215 15.066 5
      vertex 14.3738 14.1073 7
      vertex 13.215 15.066 7
    endloop
  endfacet
  facet normal -0.637424 -0.770513 -0
    outer loop
      vertex 14.3738 14.1073 7
      vertex 13.215 15.066 5
      vertex 14.3738 14.1073 5
    endloop
  endfacet
  facet normal -0.42578 -0.904827 0
    outer loop
      vertex 11.8541 15.7063 5
      vertex 13.215 15.066 7
      vertex 11.8541 15.7063 7
    endloop
  endfacet
  facet normal -0.42578 -0.904827 -0
    outer loop
      vertex 13.215 15.066 7
      vertex 11.8541 15.7063 5
      vertex 13.215 15.066 5
    endloop
  endfacet
  facet normal 0.728969 -0.684547 0
    outer loop
      vertex 5.1459 13.5267 7
      vertex 6.17546 14.6231 5
      vertex 6.17546 14.6231 7
    endloop
  endfacet
  facet normal 0.728969 -0.684547 0
    outer loop
      vertex 6.17546 14.6231 5
      vertex 5.1459 13.5267 7
      vertex 5.1459 13.5267 5
    endloop
  endfacet
  facet normal 0.876307 -0.481754 0
    outer loop
      vertex 4.42134 12.2087 7
      vertex 5.1459 13.5267 5
      vertex 5.1459 13.5267 7
    endloop
  endfacet
  facet normal 0.876307 -0.481754 0
    outer loop
      vertex 5.1459 13.5267 5
      vertex 4.42134 12.2087 7
      vertex 4.42134 12.2087 5
    endloop
  endfacet
  facet normal 0.535827 -0.844328 0
    outer loop
      vertex 6.17546 14.6231 5
      vertex 7.44532 15.429 7
      vertex 6.17546 14.6231 7
    endloop
  endfacet
  facet normal 0.535827 -0.844328 0
    outer loop
      vertex 7.44532 15.429 7
      vertex 6.17546 14.6231 5
      vertex 7.44532 15.429 5
    endloop
  endfacet
  facet normal -0.929776 0.368125 0
    outer loop
      vertex 15.2578 7.10948 5
      vertex 15.8115 8.50786 7
      vertex 15.8115 8.50786 5
    endloop
  endfacet
  facet normal -0.929776 0.368125 0
    outer loop
      vertex 15.8115 8.50786 7
      vertex 15.2578 7.10948 5
      vertex 15.2578 7.10948 7
    endloop
  endfacet
  facet normal -0.809017 -0.587785 0
    outer loop
      vertex 15.2578 12.8905 5
      vertex 14.3738 14.1073 7
      vertex 14.3738 14.1073 5
    endloop
  endfacet
  facet normal -0.809017 -0.587785 0
    outer loop
      vertex 14.3738 14.1073 7
      vertex 15.2578 12.8905 5
      vertex 15.2578 12.8905 7
    endloop
  endfacet
  facet normal -0.929776 -0.368125 0
    outer loop
      vertex 15.8115 11.4921 5
      vertex 15.2578 12.8905 7
      vertex 15.2578 12.8905 5
    endloop
  endfacet
  facet normal -0.929776 -0.368125 0
    outer loop
      vertex 15.2578 12.8905 7
      vertex 15.8115 11.4921 5
      vertex 15.8115 11.4921 7
    endloop
  endfacet
  facet normal -0.187381 -0.982287 0
    outer loop
      vertex 10.3767 15.9882 5
      vertex 11.8541 15.7063 7
      vertex 10.3767 15.9882 7
    endloop
  endfacet
  facet normal -0.187381 -0.982287 -0
    outer loop
      vertex 11.8541 15.7063 7
      vertex 10.3767 15.9882 5
      vertex 11.8541 15.7063 5
    endloop
  endfacet
  facet normal 0.968583 -0.24869 0
    outer loop
      vertex 4.04731 10.752 7
      vertex 4.42134 12.2087 5
      vertex 4.42134 12.2087 7
    endloop
  endfacet
  facet normal 0.968583 -0.24869 0
    outer loop
      vertex 4.42134 12.2087 5
      vertex 4.04731 10.752 7
      vertex 4.04731 10.752 5
    endloop
  endfacet
  facet normal 0.309017 -0.951056 0
    outer loop
      vertex 7.44532 15.429 5
      vertex 8.87571 15.8937 7
      vertex 7.44532 15.429 7
    endloop
  endfacet
  facet normal 0.309017 -0.951056 0
    outer loop
      vertex 8.87571 15.8937 7
      vertex 7.44532 15.429 5
      vertex 8.87571 15.8937 5
    endloop
  endfacet
  facet normal 0 0 1
    outer loop
      vertex 12.6 10 5
      vertex 16 10 5
      vertex 15.8115 11.4921 5
    endloop
  endfacet
  facet normal 0 0 1
    outer loop
      vertex 12.5183 10.6466 5
      vertex 15.8115 11.4921 5
      vertex 15.2578 12.8905 5
    endloop
  endfacet
  facet normal 0 0 1
    outer loop
      vertex 16 10 5
      vertex 12.6 10 5
      vertex 15.8115 8.50786 5
    endloop
  endfacet
  facet normal 0 0 1
    outer loop
      vertex 12.2784 11.2526 5
      vertex 15.2578 12.8905 5
      vertex 14.3738 14.1073 5
    endloop
  endfacet
  facet normal -0 0 1
    outer loop
      vertex 12.5183 9.35341 5
      vertex 15.8115 8.50786 5
      vertex 12.6 10 5
    endloop
  endfacet
  facet normal 0 0 1
    outer loop
      vertex 11.8953 11.7798 5
      vertex 14.3738 14.1073 5
      vertex 13.215 15.066 5
    endloop
  endfacet
  facet normal 0 0 1
    outer loop
      vertex 15.8115 8.50786 5
      vertex 12.5183 9.35341 5
      vertex 15.2578 7.10948 5
    endloop
  endfacet
  facet normal -0 0 1
    outer loop
      vertex 12.2784 8.74744 5
      vertex 15.2578 7.10948 5
      vertex 12.5183 9.35341 5
    endloop
  endfacet
  facet normal 0 0 1
    outer loop
      vertex 15.8115 11.4921 5
      vertex 12.5183 10.6466 5
      vertex 12.6 10 5
    endloop
  endfacet
  facet normal 0 0 1
    outer loop
      vertex 15.2578 12.8905 5
      vertex 12.2784 11.2526 5
      vertex 12.5183 10.6466 5
    endloop
  endfacet
  facet normal 0 0 1
    outer loop
      vertex 14.3738 14.1073 5
      vertex 11.8953 11.7798 5
      vertex 12.2784 11.2526 5
    endloop
  endfacet
  facet normal 0 0 1
    outer loop
      vertex 11.3931 12.1953 5
      vertex 13.215 15.066 5
      vertex 11.8541 15.7063 5
    endloop
  endfacet
  facet normal 0 0 1
    outer loop
      vertex 13.215 15.066 5
      vertex 11.3931 12.1953 5
      vertex 11.8953 11.7798 5
    endloop
  endfacet
  facet normal 0 0 1
    outer loop
      vertex 11.8541 15.7063 5
      vertex 10.8034 12.4727 5
      vertex 11.3931 12.1953 5
    endloop
  endfacet
  facet normal 0 0 1
    outer loop
      vertex 10.3767 15.9882 5
      vertex 10.8034 12.4727 5
      vertex 11.8541 15.7063 5
    endloop
  endfacet
  facet normal 0 0 1
    outer loop
      vertex 10.3767 15.9882 5
      vertex 10.1633 12.5949 5
      vertex 10.8034 12.4727 5
    endloop
  endfacet
  facet normal 0 0 1
    outer loop
      vertex 10.3767 15.9882 5
      vertex 9.51281 12.5539 5
      vertex 10.1633 12.5949 5
    endloop
  endfacet
  facet normal -0 0 1
    outer loop
      vertex 8.87571 15.8937 5
      vertex 9.51281 12.5539 5
      vertex 10.3767 15.9882 5
    endloop
  endfacet
  facet normal 0 0 1
    outer loop
      vertex 9.51281 12.5539 5
      vertex 8.87571 15.8937 5
      vertex 8.89297 12.3525 5
    endloop
  endfacet
  facet normal -0 0 1
    outer loop
      vertex 7.44532 15.429 5
      vertex 8.89297 12.3525 5
      vertex 8.87571 15.8937 5
    endloop
  endfacet
  facet normal 0 0 1
    outer loop
      vertex 8.89297 12.3525 5
      vertex 7.44532 15.429 5
      vertex 8.3427 12.0033 5
    endloop
  endfacet
  facet normal -0 0 1
    outer loop
      vertex 6.17546 14.6231 5
      vertex 8.3427 12.0033 5
      vertex 7.44532 15.429 5
    endloop
  endfacet
  facet normal 0 0 1
    outer loop
      vertex 8.3427 12.0033 5
      vertex 6.17546 14.6231 5
      vertex 7.89655 11.5282 5
    endloop
  endfacet
  facet normal -0 0 1
    outer loop
      vertex 5.1459 13.5267 5
      vertex 7.89655 11.5282 5
      vertex 6.17546 14.6231 5
    endloop
  endfacet
  facet normal -0 0 1
    outer loop
      vertex 4.42134 12.2087 5
      vertex 7.58258 10.9571 5
      vertex 5.1459 13.5267 5
    endloop
  endfacet
  facet normal 0 0 1
    outer loop
      vertex 7.89655 11.5282 5
      vertex 5.1459 13.5267 5
      vertex 7.58258 10.9571 5
    endloop
  endfacet
  facet normal 0 0 1
    outer loop
      vertex 15.2578 7.10948 5
      vertex 12.2784 8.74744 5
      vertex 14.3738 5.89272 5
    endloop
  endfacet
  facet normal -0 0 1
    outer loop
      vertex 11.8953 8.22018 5
      vertex 14.3738 5.89272 5
      vertex 12.2784 8.74744 5
    endloop
  endfacet
  facet normal 0 0 1
    outer loop
      vertex 14.3738 5.89272 5
      vertex 11.8953 8.22018 5
      vertex 13.215 4.93403 5
    endloop
  endfacet
  facet normal -0 0 1
    outer loop
      vertex 11.3931 7.80475 5
      vertex 13.215 4.93403 5
      vertex 11.8953 8.22018 5
    endloop
  endfacet
  facet normal 0 0 1
    outer loop
      vertex 13.215 4.93403 5
      vertex 11.3931 7.80475 5
      vertex 11.8541 4.29366 5
    endloop
  endfacet
  facet normal -0 0 1
    outer loop
      vertex 10.8034 7.52725 5
      vertex 11.8541 4.29366 5
      vertex 11.3931 7.80475 5
    endloop
  endfacet
  facet normal 0 0 1
    outer loop
      vertex 10.8034 7.52725 5
      vertex 10.3767 4.01184 5
      vertex 11.8541 4.29366 5
    endloop
  endfacet
  facet normal -0 0 1
    outer loop
      vertex 10.1633 7.40513 5
      vertex 10.3767 4.01184 5
      vertex 10.8034 7.52725 5
    endloop
  endfacet
  facet normal 0 0 1
    outer loop
      vertex 9.51281 7.44605 5
      vertex 10.3767 4.01184 5
      vertex 10.1633 7.40513 5
    endloop
  endfacet
  facet normal 0 0 1
    outer loop
      vertex 8.87571 4.10628 5
      vertex 9.51281 7.44605 5
      vertex 8.89297 7.64745 5
    endloop
  endfacet
  facet normal 0 0 1
    outer loop
      vertex 9.51281 7.44605 5
      vertex 8.87571 4.10628 5
      vertex 10.3767 4.01184 5
    endloop
  endfacet
  facet normal 0 0 1
    outer loop
      vertex 7.44532 4.57104 5
      vertex 8.89297 7.64745 5
      vertex 8.3427 7.99667 5
    endloop
  endfacet
  facet normal 0 0 1
    outer loop
      vertex 6.17546 5.37692 5
      vertex 8.3427 7.99667 5
      vertex 7.89655 8.47176 5
    endloop
  endfacet
  facet normal 0 0 1
    outer loop
      vertex 5.1459 6.47329 5
      vertex 7.89655 8.47176 5
      vertex 7.58258 9.04288 5
    endloop
  endfacet
  facet normal 0 0 1
    outer loop
      vertex 8.89297 7.64745 5
      vertex 7.44532 4.57104 5
      vertex 8.87571 4.10628 5
    endloop
  endfacet
  facet normal 0 0 1
    outer loop
      vertex 4.42134 7.79125 5
      vertex 7.58258 9.04288 5
      vertex 7.4205 9.67413 5
    endloop
  endfacet
  facet normal 0 0 1
    outer loop
      vertex 7.58258 10.9571 5
      vertex 4.42134 12.2087 5
      vertex 7.4205 10.3259 5
    endloop
  endfacet
  facet normal 0 0 1
    outer loop
      vertex 8.3427 7.99667 5
      vertex 6.17546 5.37692 5
      vertex 7.44532 4.57104 5
    endloop
  endfacet
  facet normal -0 0 1
    outer loop
      vertex 4.04731 10.752 5
      vertex 7.4205 10.3259 5
      vertex 4.42134 12.2087 5
    endloop
  endfacet
  facet normal 0 0 1
    outer loop
      vertex 7.89655 8.47176 5
      vertex 5.1459 6.47329 5
      vertex 6.17546 5.37692 5
    endloop
  endfacet
  facet normal 0 0 1
    outer loop
      vertex 7.4205 10.3259 5
      vertex 4.04731 10.752 5
      vertex 7.4205 9.67413 5
    endloop
  endfacet
  facet normal 0 0 1
    outer loop
      vertex 7.58258 9.04288 5
      vertex 4.42134 7.79125 5
      vertex 5.1459 6.47329 5
    endloop
  endfacet
  facet normal 0 0 1
    outer loop
      vertex 4.04731 9.248 5
      vertex 7.4205 9.67413 5
      vertex 4.04731 10.752 5
    endloop
  endfacet
  facet normal 0 0 1
    outer loop
      vertex 7.4205 9.67413 5
      vertex 4.04731 9.248 5
      vertex 4.42134 7.79125 5
    endloop
  endfacet
  facet normal -0.809017 0.587785 0
    outer loop
      vertex 14.3738 5.89272 5
      vertex 15.2578 7.10948 7
      vertex 15.2578 7.10948 5
    endloop
  endfacet
  facet normal -0.809017 0.587785 0
    outer loop
      vertex 15.2578 7.10948 7
      vertex 14.3738 5.89272 5
      vertex 14.3738 5.89272 7
    endloop
  endfacet
  facet normal -0.992115 0.125333 0
    outer loop
      vertex 15.8115 8.50786 5
      vertex 16 10 7
      vertex 16 10 5
    endloop
  endfacet
  facet normal -0.992115 0.125333 0
    outer loop
      vertex 16 10 7
      vertex 15.8115 8.50786 5
      vertex 15.8115 8.50786 7
    endloop
  endfacet
  facet normal 0.535827 0.844328 -0
    outer loop
      vertex 7.44532 4.57104 5
      vertex 6.17546 5.37692 7
      vertex 7.44532 4.57104 7
    endloop
  endfacet
  facet normal 0.535827 0.844328 0
    outer loop
      vertex 6.17546 5.37692 7
      vertex 7.44532 4.57104 5
      vertex 6.17546 5.37692 5
    endloop
  endfacet
  facet normal 0.728969 0.684547 0
    outer loop
      vertex 6.17546 5.37692 7
      vertex 5.1459 6.47329 5
      vertex 5.1459 6.47329 7
    endloop
  endfacet
  facet normal 0.728969 0.684547 0
    outer loop
      vertex 5.1459 6.47329 5
      vertex 6.17546 5.37692 7
      vertex 6.17546 5.37692 5
    endloop
  endfacet
  facet normal -0.42578 0.904827 0
    outer loop
      vertex 13.215 4.93403 5
      vertex 11.8541 4.29366 7
      vertex 13.215 4.93403 7
    endloop
  endfacet
  facet normal -0.42578 0.904827 0
    outer loop
      vertex 11.8541 4.29366 7
      vertex 13.215 4.93403 5
      vertex 11.8541 4.29366 5
    endloop
  endfacet
  facet normal 0.0627904 0.998027 -0
    outer loop
      vertex 10.3767 4.01184 5
      vertex 8.87571 4.10628 7
      vertex 10.3767 4.01184 7
    endloop
  endfacet
  facet normal 0.0627904 0.998027 0
    outer loop
      vertex 8.87571 4.10628 7
      vertex 10.3767 4.01184 5
      vertex 8.87571 4.10628 5
    endloop
  endfacet
  facet normal 0.876307 0.481754 0
    outer loop
      vertex 5.1459 6.47329 7
      vertex 4.42134 7.79125 5
      vertex 4.42134 7.79125 7
    endloop
  endfacet
  facet normal 0.876307 0.481754 0
    outer loop
      vertex 4.42134 7.79125 5
      vertex 5.1459 6.47329 7
      vertex 5.1459 6.47329 5
    endloop
  endfacet
  facet normal 0.968583 0.24869 0
    outer loop
      vertex 4.42134 7.79125 7
      vertex 4.04731 9.248 5
      vertex 4.04731 9.248 7
    endloop
  endfacet
  facet normal 0.968583 0.24869 0
    outer loop
      vertex 4.04731 9.248 5
      vertex 4.42134 7.79125 7
      vertex 4.42134 7.79125 5
    endloop
  endfacet
  facet normal -0.637424 0.770513 0
    outer loop
      vertex 14.3738 5.89272 5
      vertex 13.215 4.93403 7
      vertex 14.3738 5.89272 7
    endloop
  endfacet
  facet normal -0.637424 0.770513 0
    outer loop
      vertex 13.215 4.93403 7
      vertex 14.3738 5.89272 5
      vertex 13.215 4.93403 5
    endloop
  endfacet
  facet normal 0.309017 0.951056 -0
    outer loop
      vertex 8.87571 4.10628 5
      vertex 7.44532 4.57104 7
      vertex 8.87571 4.10628 7
    endloop
  endfacet
  facet normal 0.309017 0.951056 0
    outer loop
      vertex 7.44532 4.57104 7
      vertex 8.87571 4.10628 5
      vertex 7.44532 4.57104 5
    endloop
  endfacet
endsolid OpenSCAD_Model
